<svg width="1920" height="1080" viewBox="0 0 1920 1080" fill="none" xmlns="http://www.w3.org/2000/svg">
<rect width="1920" height="1080" fill="#F9F9F9"/>
<g clip-path="url(#clip0_9_2)">
<path d="M0 49H274V44H549V96H823V92H1097V96H1371V40H1646V87H1920V79V0H1646H1371H1097H823H549H274H0V49Z" fill="#04A451"/>
<path d="M0 208H274V195H549V221H823V200H1097V217H1371V139H1646V243H1920V182V77V85H1646V38H1371V94H1097V90H823V94H549V42H274V47H0V208Z" fill="#57B974"/>
<path d="M0 329H274V347H549V299H823V368H1097V282H1371V329H1646V303H1920V180V241H1646V137H1371V215H1097V198H823V219H549V193H274V206H0V329Z" fill="#86CE97"/>
<path d="M0 368H274V394H549V347H823V403H1097V355H1371V377H1646V347H1920V355V301H1646V327H1371V280H1097V366H823V297H549V345H274V327H0V368Z" fill="#B1E2BC"/>
<path d="M0 433H274H549H823H1097H1371H1646H1920V353V345H1646V375H1371V353H1097V401H823V345H549V392H274V366H0V433Z" fill="#DCF6E1"/>
</g>
<defs>
<clipPath id="clip0_9_2">
<rect width="1920" height="432" fill="white"/>
</clipPath>
</defs>
</svg>
